<?xml version="1.0" encoding="UTF-8"?>
<svg id="Layer_1" data-name="Layer 1" xmlns="http://www.w3.org/2000/svg" width="660.49" height="648.07" viewBox="0 0 660.49 648.07">
  <g id="FramedSymbol">
    <g id="Symbol">
      <polygon id="Right" points="460.12 0 590.52 34.94 660.49 295.44 437.84 517.82 307.44 482.88 284.12 396.05 414.52 430.99 573.55 272.14 526.91 98.48 396.51 63.54 460.12 0" style="fill: #2aa6e2; stroke-width: 0px;"/>
      <polygon id="Left" points="495.1 130.25 530.09 260.5 466.47 324.04 431.49 193.79 214.16 135.55 86.93 262.63 121.91 392.88 34.98 369.59 0 239.34 190.84 48.72 495.1 130.25" style="fill: #2aa6e2; stroke-width: 0px;"/>
      <polygon id="Bottom" points="312.75 202.26 225.82 178.97 130.4 274.28 212.02 578.19 472.82 648.07 568.24 552.76 544.92 465.93 449.5 561.24 275.64 514.65 217.33 297.57 312.75 202.26" style="fill: #2aa6e2; stroke-width: 0px;"/>
    </g>
  </g>
</svg>