<?xml version="1.0" encoding="UTF-8"?>
<svg id="Layer_1" data-name="Layer 1" xmlns="http://www.w3.org/2000/svg" width="105.04" height="120" viewBox="0 0 105.04 120">
  <path d="M105.01,86.82l-3.02-64.15c-.13-2.83-1.33-5.47-3.37-7.43l-14.22-13.69c-1.88-1.81-4.88-1.75-6.69.13-1.81,1.88-1.75,4.88.13,6.69l7.4,7.13c0,.09,0,.17,0,.26l.54,10.74c.14,2.8,1.53,5.34,3.8,6.97l3.57,2.56,2.41,51.26c.18,3.61-1.54,4.99-3.07,5.06-1.96.13-3.34-1.73-3.48-4.64l-1.83-39.99c-.13-2.91-1.45-5.7-3.6-7.66-2.16-1.96-5.08-3-7.97-2.85l-1.3.06V7.88c0-4.35-3.53-7.88-7.88-7.88H11.72C7.36,0,3.83,3.53,3.83,7.88v102.5H1.58c-.87,0-1.58.71-1.58,1.58v8.04h78.14v-8.04c0-.87-.71-1.58-1.58-1.58h-2.26v-63.66l1.77-.09c.42,0,.83.13,1.14.41.31.28.5.68.51,1.09l1.83,40.01c.45,9.06,6.68,13.65,12.79,13.65.2,0,.41,0,.61-.02,6.34-.32,12.52-5.57,12.05-14.97ZM62.72,42.55c0,2.18-1.76,3.94-3.94,3.94H19.37c-2.18,0-3.94-1.76-3.94-3.94V15.18c0-2.18,1.76-3.94,3.94-3.94h39.41c2.18,0,3.94,1.76,3.94,3.94v27.37Z" style="fill: #000; stroke-width: 0px;"/>
</svg>